<svg xmlns="http://www.w3.org/2000/svg" viewBox="0 0 64 64">
  <rect width="64" height="64" fill="#030303"/>
  <path d="M10 32h15M39 32h15" stroke="#f3c969" stroke-width="2" stroke-linecap="square"/>
  <path d="M14 27h11M39 27h11M15 37h10M39 37h10" stroke="#f3c969" stroke-width="1.25" stroke-linecap="square" opacity=".58"/>
  <path d="M28 19h8l4 34H24l4-34Z" fill="#030303" stroke="#f5f0df" stroke-width="2.5" stroke-linejoin="round"/>
  <path d="M22 53h20l4 6H18l4-6Z" fill="#030303" stroke="#f5f0df" stroke-width="2.5" stroke-linejoin="round"/>
  <path d="M25 19h14M28 14h8M31 9h2" stroke="#f5f0df" stroke-width="2.5" stroke-linecap="square"/>
  <path d="M29 27h6M28 34h8M28 42h3M33 42h3M27 49h4M33 49h4" stroke="#f5f0df" stroke-width="2" stroke-linecap="square"/>
  <path d="M32 21v31" stroke="#f5f0df" stroke-width="1.2" stroke-linecap="square" opacity=".7"/>
  <path d="M28 31h8v6h-8z" fill="#f3c969"/>
  <path d="M9 33h46" stroke="#f3c969" stroke-width="2" stroke-linecap="square"/>
</svg>
